{"title":"The Company You Keep 2012 DVDRip XviD AC3-TODE","uid":8372749,"size":737177065,"categoryP":"video","categoryS":"movies","magnet":"?xt=urn:btih:745b05439f5c8e2d7f3e09246dd0dc4f41c68dfe&amp;dn=The+Company+You+Keep+2012+DVDRip+XviD+AC3-TODE&amp;tr=udp%3A%2F%2Ftracker.openbittorrent.com%3A80&amp;tr=udp%3A%2F%2Fopen.demonii.com%3A1337&amp;tr=udp%3A%2F%2Ftracker.coppersurfer.tk%3A6969&amp;tr=udp%3A%2F%2Fexodus.desync.com%3A6969","seeders":4,"leechers":0,"uploader":"HeroMaster","files":-1,"time":1365962380,"description":"The Company You Keep 2012 DVDRip XviD AC3-TODE\n\n &lt;a href=&quot;\nhttp://www.imdb.com/title/tt1381404/&quot; rel=&quot;nofollow&quot; target=&quot;_NEW&quot;&gt;\nhttp://www.imdb.com/title/tt1381404/&lt;/a&gt;\n\n\nPlot: A thriller centered on a former Weather Underground activist who goes \non the run from a journalist who has discovered his identity.\n\n\nDirector:\nRobert Redford\n\nWriters:\nLem Dobbs (screenplay), Neil Gordon (based on the novel by)\n\nStars:\nRobert Redford, Nick Nolte, Stanley Tucci\n\nGenres:\nThriller\n\nCountry:\nUSA\n\nLanguage:\nEnglish\n\n\nThanks: CM8\n\n\nFormat : AVI\nFormat/Info : Audio Video Interleave\nFile size : 703 MiB\nDuration : 1h 57mn\nOverall bit rate : 839 Kbps\nWriting application : Lavf54.59.103\n\nVideo\nID : 0\nFormat : MPEG-4 Visual\nFormat profile : Simple@L3\nFormat settings, BVOP : No\nFormat settings, QPel : No\nFormat settings, GMC : No warppoints\nFormat settings, Matrix : Default (H.263)\nCodec ID : XVID\nCodec ID/Hint : XviD\nDuration : 1h 57mn\nBit rate : 700 Kbps\nWidth : 640 pixels\nHeight : 272 pixels\nDisplay aspect ratio : 2.35:1\nFrame rate : 25.000 fps\nColor space : YUV\nChroma subsampling : 4:2:0\nBit depth : 8 bits\nScan type : Progressive\nCompression mode : Lossy\nBits/(Pixel*Frame) : 0.161\nStream size : 587 MiB (83%)\nWriting library : XviD 64\n\nAudio\nID : 1\nFormat : AC-3\nFormat/Info : Audio Coding 3\nMode extension : CM (complete main)\nFormat settings, Endianness : Big\nCodec ID : 2000\nDuration : 1h 57mn\nBit rate mode : Constant\nBit rate : 128 Kbps\nChannel(s) : 2 channels\nChannel positions : Front: L R\nSampling rate : 48.0 KHz\nBit depth : 16 bits\nCompression mode : Lossy\nStream size : 107 MiB (15%)\nAlignment : Aligned on interleaves\nInterleave, duration : 32 ms (0.80 video frame)\n\n\nPoster:\n\n &lt;a href=&quot;\nhttp://i.imgur.com/y93Qaa2.jpg&quot; rel=&quot;nofollow&quot; target=&quot;_NEW&quot;&gt;\nhttp://i.imgur.com/y93Qaa2.jpg&lt;/a&gt;\n\n\nScreenshots:\n\n &lt;a href=&quot;\nhttp://i.imgur.com/WEYPU2d.png&quot; rel=&quot;nofollow&quot; target=&quot;_NEW&quot;&gt;\nhttp://i.imgur.com/WEYPU2d.png&lt;/a&gt;\n\n &lt;a href=&quot;\nhttp://i.imgur.com/2CKjMCJ.png&quot; rel=&quot;nofollow&quot; target=&quot;_NEW&quot;&gt;\nhttp://i.imgur.com/2CKjMCJ.png&lt;/a&gt;\n\n &lt;a href=&quot;\nhttp://i.imgur.com/jofRbaJ.png&quot; rel=&quot;nofollow&quot; target=&quot;_NEW&quot;&gt;\nhttp://i.imgur.com/jofRbaJ.png&lt;/a&gt;\n\n\nSEED AND ENJOY!","torrent":{"xt":"urn:btih:745b05439f5c8e2d7f3e09246dd0dc4f41c68dfe","amp;dn":"The+Company+You+Keep+2012+DVDRip+XviD+AC3-TODE","amp;tr":["udp%3A%2F%2Ftracker.openbittorrent.com%3A80","udp%3A%2F%2Fopen.demonii.com%3A1337","udp%3A%2F%2Ftracker.coppersurfer.tk%3A6969","udp%3A%2F%2Fexodus.desync.com%3A6969"],"infoHash":"745b05439f5c8e2d7f3e09246dd0dc4f41c68dfe","infoHashBuffer":{"type":"Buffer","data":[116,91,5,67,159,92,142,45,127,62,9,36,109,208,220,79,65,198,141,254]},"announce":[],"urlList":[]}}